<?xml version="1.0" standalone="no"?>
<!DOCTYPE svg PUBLIC "-//W3C//DTD SVG 20010904//EN"
 "http://www.w3.org/TR/2001/REC-SVG-20010904/DTD/svg10.dtd">
<svg version="1.0" xmlns="http://www.w3.org/2000/svg"
 width="240.000000pt" height="240.000000pt" viewBox="0 0 240.000000 240.000000"
 preserveAspectRatio="xMidYMid meet">
<metadata>
Created by potrace 1.14, written by Peter Selinger 2001-2017
</metadata>
<g transform="translate(0.000000,240.000000) scale(0.100000,-0.100000)"
fill="#000000" stroke="none">
<path d="M1136 2312 c-3 -5 -13 -41 -22 -78 -34 -149 -125 -354 -210 -476 -61
-86 -169 -211 -245 -283 -73 -69 -285 -231 -329 -252 -14 -6 -50 -23 -82 -36
-31 -14 -61 -34 -67 -46 -8 -13 -12 -126 -13 -330 -2 -295 -1 -311 17 -331 35
-39 118 -16 270 74 48 29 179 127 200 150 6 6 36 32 67 59 57 47 183 197 230
272 160 257 222 509 236 960 9 286 6 319 -25 323 -11 2 -24 -1 -27 -6z"/>
<path d="M2145 2036 c-47 -16 -117 -48 -160 -73 -16 -9 -52 -31 -80 -47 -105
-63 -284 -223 -355 -320 -227 -308 -307 -574 -331 -1099 -12 -256 -9 -307 19
-307 30 0 37 13 70 125 31 102 51 155 72 197 5 9 25 47 45 85 77 149 155 250
303 393 71 69 136 130 143 135 8 6 32 24 54 41 48 36 106 70 212 123 44 22 84
46 90 53 13 15 19 221 16 486 -3 167 -5 184 -23 202 -23 23 -22 23 -75 6z"/>
</g>
</svg>
